<svg xmlns="http://www.w3.org/2000/svg" width="256" height="256" viewBox="0 0 100 100"><rect width="100" height="100" rx="20" fill="#184e81"></rect><path fill="#ffffff" d="M22.50 86L22.50 86L-9.10 86Q-11.00 86-11.85 85.15Q-12.70 84.30-12.70 82.40L-12.70 82.40L-12.70 70.70Q-12.70 68.80-11.85 67.95Q-11.00 67.10-9.10 67.10L-9.10 67.10L17.80 67.10Q19.10 67.10 19.75 66.25Q20.40 65.40 20.40 64.20L20.40 64.20Q20.40 62.50 19.75 61.70Q19.10 60.90 17.80 60.80L17.80 60.80L2.80 58.70Q-4.20 57.70-8.45 54.10Q-12.70 50.50-12.70 42.10L-12.70 42.10L-12.70 31.60Q-12.70 23.10-7.20 18.55Q-1.70 14 8.00 14L8.00 14L36 14Q37.90 14 38.75 14.85Q39.60 15.70 39.60 17.60L39.60 17.60L39.60 29.50Q39.60 31.40 38.75 32.25Q37.90 33.10 36 33.10L36 33.10L12.70 33.10Q11.40 33.10 10.70 33.95Q10.00 34.80 10.00 36.10L10.00 36.10Q10.00 37.40 10.70 38.30Q11.40 39.20 12.70 39.30L12.70 39.30L27.60 41.30Q34.60 42.30 38.90 45.90Q43.20 49.50 43.20 57.90L43.20 57.90L43.20 68.40Q43.20 76.90 37.65 81.45Q32.10 86 22.50 86ZM109.10 86L109.10 86L77.60 86Q65.10 86 59.05 81Q53 76 53 65.60L53 65.60L53 34.40Q53 24 59.05 19Q65.10 14 77.60 14L77.60 14L102.60 14Q104.50 14 105.35 14.85Q106.20 15.70 106.20 17.60L106.20 17.60L106.20 29.70Q106.20 31.60 105.35 32.45Q104.50 33.30 102.60 33.30L102.60 33.30L81.80 33.30Q78.70 33.30 77.20 34.55Q75.70 35.80 75.70 38.30L75.70 38.30L75.70 62.20Q75.70 64.70 76.85 65.90Q78 67.10 80.30 67.10L80.30 67.10L90 67.10L90 51.50Q90 49.60 90.85 48.75Q91.70 47.90 93.60 47.90L93.60 47.90L109.10 47.90Q111 47.90 111.85 48.75Q112.70 49.60 112.70 51.50L112.70 51.50L112.70 82.40Q112.70 84.30 111.85 85.15Q111 86 109.10 86Z"></path></svg>
